<?xml version="1.0" encoding="UTF-8" standalone="no" ?>
<!DOCTYPE svg PUBLIC "-//W3C//DTD SVG 1.1//EN" "http://www.w3.org/Graphics/SVG/1.1/DTD/svg11.dtd">
<svg xmlns="http://www.w3.org/2000/svg" xmlns:xlink="http://www.w3.org/1999/xlink" version="1.1" width="315" height="230" viewBox="0 0 315 230" xml:space="preserve">
<desc>Created with Fabric.js 4.6.0</desc>
<defs>
</defs>
<g transform="matrix(1.13 0 0 1 157.45 115.17)" id="iAmmVs34z1go2eidk8y0_"  >
<path style="stroke: rgb(58,47,31); stroke-width: 1; stroke-dasharray: none; stroke-linecap: butt; stroke-dashoffset: 0; stroke-linejoin: miter; stroke-miterlimit: 4; fill: rgb(181,149,100); fill-rule: nonzero; opacity: 1;" vector-effect="non-scaling-stroke"  transform=" translate(0, 0)" d="M 13.73231 -112.02738 C -10.415360000000002 -109.59523999999999 -28.656400000000005 -109.24779 -59.92676 -96.04475 C -91.19712 -82.84170999999999 -92.23946000000001 -78.4986 -111.34913 -59.215219999999995 C -130.45879 -39.93182999999999 -132.73590000000002 -26.778669999999998 -136.36542 -18.911199999999994 C -139.99494 -11.043739999999993 -137.2375 4.054040000000008 -134.97563 8.884670000000007 C -132.71376 13.715300000000006 -120.31980999999999 8.152070000000007 -116.90831 16.528540000000007 C -113.49681 24.905010000000004 -111.85162 27.646890000000006 -115.79952 39.46014000000001 C -119.74742 51.273390000000006 -123.68355 53.010630000000006 -119.6879 63.78153000000001 C -115.69224 74.55243000000002 -98.84099 82.54374000000001 -98.84099 82.54374000000001 L -46.72373 102.69575000000002 L 0.5292599999999936 109.64472000000002 L 13.037399999999993 91.57740000000003 L 34.57919999999999 110.33961000000002 C 34.57919999999999 110.33961000000002 78.76468 118.42113000000002 95.73012 106.86513000000002 C 112.69557 95.30913000000002 109.45433 99.74244000000002 119.35661 84.62843000000002 C 129.25889 69.51442000000003 131.5173 65.17132000000002 135.33924000000002 46.409100000000024 C 139.16117000000003 27.646890000000024 139.16117000000003 26.951990000000023 134.64434000000003 9.579570000000025 C 130.12751000000003 -7.7928499999999765 123.00136000000003 -8.377319999999976 117.27192000000002 -23.080579999999976 C 111.54248000000003 -37.78383999999998 118.48695000000002 -38.908339999999974 111.72658000000003 -49.233469999999976 C 104.96622000000002 -59.55860999999997 105.17075000000003 -52.74159999999998 90.23047000000003 -64.38111999999998 C 75.29019000000002 -76.02063999999999 65.64348000000003 -90.16942999999998 62.37507000000002 -93.96004999999998 C 59.10666000000002 -97.75067999999999 59.55950000000002 -104.18686999999998 46.748200000000026 -108.33739999999997 C 33.93690000000002 -112.48792999999998 37.87995000000002 -114.45950999999998 13.732290000000027 -112.02736999999998 z" stroke-linecap="round" />
</g>
<g transform="matrix(1.33 0 0 1.27 162.32 103.88)" id="6YQHaBsTcOf5M6hNjAM92"  >
<filter id="SVGID_1249" y="-25%" height="150%" x="-24%" width="148%" >
	<feGaussianBlur in="SourceAlpha" stdDeviation="2"></feGaussianBlur>
	<feOffset dx="0" dy="2" result="oBlur" ></feOffset>
	<feFlood flood-color="rgb(89,71,43)" flood-opacity="1"/>
	<feComposite in2="oBlur" operator="in" />
	<feMerge>
		<feMergeNode></feMergeNode>
		<feMergeNode in="SourceGraphic"></feMergeNode>
	</feMerge>
</filter>
<path style="stroke: rgb(0,0,0); stroke-width: 1; stroke-dasharray: none; stroke-linecap: butt; stroke-dashoffset: 0; stroke-linejoin: miter; stroke-miterlimit: 4; fill: rgb(86,71,48); fill-rule: nonzero; opacity: 1;filter: url(#SVGID_1249);" vector-effect="non-scaling-stroke"  transform=" translate(0, 0)" d="M 4.68486 -62.19327 L -51.20988 62.19327 L -27.583389999999998 49.68513 L -20.63442 21.19436 L -19.09553 46.461929999999995 L 6.403469999999999 29.319519999999994 L 20.852529999999998 38.66734999999999 L 23.026439999999997 34.10212999999999 L 23.026439999999997 40.189089999999986 L 51.209869999999995 59.891269999999984 L 18.757899999999992 -27.92654000000001 L 19.54817999999999 -12.48940000000001 L 16.307339999999993 -33.14393000000001 z" stroke-linecap="round" />
</g>
</svg>